Coordinates
version=1
nRows=7
nColumns=63
inDegrees=yes

Units are S.I. units (second, meters, Newtons, ...)
If the header above contains a line with 'inDegrees', this indicates whether rotational values are in degrees (yes) or radians (no).

endheader
time	pelvis_tilt	pelvis_list	pelvis_rotation	pelvis_tx	pelvis_ty	pelvis_tz	hip_flexion_r	hip_adduction_r	hip_rotation_r	knee_angle_r	knee_angle_r_beta	ankle_angle_r	subtalar_angle_r	mtp_angle_r	hip_flexion_l	hip_adduction_l	hip_rotation_l	knee_angle_l	knee_angle_l_beta	ankle_angle_l	subtalar_angle_l	mtp_angle_l	L5_S1_Flex_Ext	L5_S1_Lat_Bending	L5_S1_axial_rotation	L4_L5_Flex_Ext	L4_L5_Lat_Bending	L4_L5_axial_rotation	L3_L4_Flex_Ext	L3_L4_Lat_Bending	L3_L4_axial_rotation	L2_L3_Flex_Ext	L2_L3_Lat_Bending	L2_L3_axial_rotation	L1_L2_Flex_Ext	L1_L2_Lat_Bending	L1_L2_axial_rotation	L1_T12_Flex_Ext	L1_T12_Lat_Bending	L1_T12_axial_rotation	Abs_r3	Abs_r2	Abs_r1	Abs_t1	Abs_t2	neck_flexion	neck_bending	neck_rotation	arm_flex_r	arm_add_r	arm_rot_r	elbow_flex_r	pro_sup_r	wrist_flex_r	wrist_dev_r	arm_flex_l	arm_add_l	arm_rot_l	elbow_flex_l	pro_sup_l	wrist_flex_l	wrist_dev_l
      0.00000000	     -4.58647674	     -5.56495984	     86.13562865	      0.26356785	      0.89013442	      0.69074448	      5.99738064	     -0.42148374	      8.19915722	     11.49207218	      0.20057450	     30.93238873	     -7.57522690	      0.00000000	      8.34706293	     -0.12851701	    -10.76344031	     15.23596378	      0.26591773	     37.67850325	      8.49466204	      0.00000000	      0.37410038	     -0.26664385	      1.94084317	      0.69474182	     -0.35463632	      2.06214587	      0.61460951	     -0.64831786	      2.06214587	      0.42755932	     -0.64831786	      1.69823778	      0.34738961	     -0.54374014	      1.57693508	      0.21376096	     -0.41303132	      1.45563238	      2.67216161	     -3.01632856	     10.79438747	      0.00000000	      0.00000000	     28.14517943	     -5.46621149	    -17.26497549	     14.15395012	     -5.14877233	     62.06482755	     41.27114503	      6.46176321	     -1.29146309	     10.77226038	     22.35529067	     -4.11412791	     71.36326607	     35.94270035	     68.28910360	      7.53660909	     -5.03882569
      0.01666667	     -4.85020193	     -6.05462861	     86.13385541	      0.26315169	      0.88992892	      0.69140600	      6.59251431	     -0.77745418	      8.14173199	     11.03340441	      0.19256923	     31.93559379	     -7.33688209	      0.00000000	      9.01956209	      0.17681105	    -10.45887352	     14.91954419	      0.26039517	     38.05908991	      8.78070620	      0.00000000	      0.43550488	     -0.28257935	      1.84668538	      0.80877612	     -0.37583053	      1.96210321	      0.71549097	     -0.68706342	      1.96210321	      0.49773853	     -0.68706342	      1.61584971	      0.40440983	     -0.57623580	      1.50043187	      0.24884749	     -0.43771541	      1.38501403	      3.11076783	     -3.19659409	     10.27071006	      0.00000000	      0.00000000	     28.20021144	     -6.01606602	    -16.95348113	     14.11817839	     -4.72793376	     62.74407806	     40.73133976	      6.22460663	     -1.11601894	     11.04761222	     22.04874651	     -4.28284962	     70.89245881	     36.10338009	     68.41075265	      7.11018211	     -4.89124449
      0.03333333	     -5.07695557	     -6.31234061	     86.20874247	      0.26236451	      0.88986263	      0.69215746	      7.31124230	     -1.55228673	      3.16373973	     11.51272349	      0.20093493	     34.35953582	     -0.38419204	      0.00000000	      9.43833589	      0.50250159	     -9.87069223	     14.77501609	      0.25787268	     38.22088353	      8.63294431	      0.00000000	      0.46240375	     -0.29307590	      1.67296852	      0.85873001	     -0.38979095	      1.77752905	      0.75968313	     -0.71258475	      1.77752905	      0.52848125	     -0.71258475	      1.46384746	      0.42938813	     -0.59764038	      1.35928692	      0.26421750	     -0.45397457	      1.25472639	      3.30290377	     -3.31533322	      9.30454903	      0.00000000	      0.00000000	     28.24124805	     -5.60227884	    -15.83975532	     14.80443890	     -4.46562002	     65.05590853	     40.05055068	      4.93016291	      0.06103675	     10.63651206	     20.92758762	     -4.55697626	     66.74503958	     36.76210676	     73.12987112	      7.22775911	     -3.78099209
      0.05000000	     -5.26152233	     -6.47406032	     86.21043522	      0.26199722	      0.88982117	      0.69261494	      7.69614298	     -2.03533511	      0.67922309	     11.71587719	      0.20448063	     35.52532909	      3.05721120	      0.00000000	      9.64033780	      0.84813710	     -8.71242829	     14.58583216	      0.25457080	     38.05992041	      7.49500100	      0.00000000	      0.47903823	     -0.30675762	      1.61767299	      0.88962189	     -0.40798763	      1.71877756	      0.78701190	     -0.74585048	      1.71877756	      0.54749279	     -0.74585048	      1.41546387	      0.44483490	     -0.62554014	      1.31435931	      0.27372244	     -0.47516755	      1.21325475	      3.42172215	     -3.47010355	      8.99701189	      0.00000000	      0.00000000	     28.25108637	     -5.43466226	    -15.40372383	     14.97937648	     -4.40953495	     65.48806030	     39.93365744	      4.78817102	      0.48823333	     10.34610223	     20.86767816	     -4.71646781	     66.73562796	     36.94385323	     72.45603772	      6.91155408	     -3.52824505
      0.06666667	     -5.33829783	     -6.47320145	     86.15273075	      0.26206850	      0.88995798	      0.69283310	      7.75027644	     -2.18208607	      0.18406508	     11.71755249	      0.20450987	     35.86715848	      3.86694414	      0.00000000	      9.61949145	      0.92831734	     -8.65753655	     14.54353943	      0.25383265	     38.02738340	      7.55890544	      0.00000000	      0.47128518	     -0.31503655	      1.61293629	      0.87522370	     -0.41899861	      1.71374481	      0.77427441	     -0.76597987	      1.71374481	      0.53863183	     -0.76597987	      1.41131926	      0.43763541	     -0.64242253	      1.31051074	      0.26929235	     -0.48799162	      1.20970222	      3.36634288	     -3.56375646	      8.97066779	      0.00000000	      0.00000000	     28.24424519	     -5.36111759	    -15.42180167	     14.99249240	     -4.41898512	     65.02149700	     40.06316923	      4.88382093	      0.35717568	     10.21822713	     21.07038436	     -4.78483197	     67.44609389	     36.87651073	     71.60633498	      6.58157678	     -3.78626324
      0.08333333	     -5.38221044	     -6.41084500	     86.14963102	      0.26221378	      0.89004660	      0.69279271	      7.67499877	     -2.25118365	      0.00647827	     11.71554942	      0.20447491	     36.00792457	      4.17365030	      0.00000000	      9.49764387	      0.99153607	     -8.49209161	     14.53547117	      0.25369183	     37.91395853	      7.39797765	      0.00000000	      0.45897874	     -0.32186251	      1.59949046	      0.85236942	     -0.42807714	      1.69945861	      0.75405618	     -0.78257651	      1.69945861	      0.52456681	     -0.78257651	      1.39955415	      0.42620766	     -0.65634203	      1.29958600	      0.26226045	     -0.49856503	      1.19961784	      3.27843926	     -3.64097308	      8.89588607	      0.00000000	      0.00000000	     28.23871822	     -5.05054996	    -15.19619312	     15.05315651	     -4.46070574	     64.66071520	     40.14613804	      5.29022435	      0.82268285	      9.87706462	     21.13839083	     -4.86730127	     67.48067615	     36.89039068	     71.33622153	      6.82375599	     -3.62383004
      0.10000000	     -5.35912055	     -6.34926819	     86.13898454	      0.26204051	      0.89013897	      0.69238491	      7.60440612	     -2.34687822	     -0.99626746	     11.81652831	      0.20623733	     36.29260830	      5.57454844	      0.00000000	      9.33047857	      1.08745269	     -7.72612429	     14.48837695	      0.25286988	     37.69368178	      6.26037950	      0.00000000	      0.45349496	     -0.31479160	      1.56768939	      0.84218550	     -0.41867283	      1.66566998	      0.74504688	     -0.76538430	      1.66566998	      0.51829939	     -0.76538430	      1.37172822	      0.42111542	     -0.64192303	      1.27374763	      0.25912702	     -0.48761219	      1.17576704	      3.23926918	     -3.56098555	      8.71901809	      0.00000000	      0.00000000	     28.22486444	     -4.75586613	    -14.82362249	     15.14804489	     -4.58559890	     64.62276438	     40.39433141	      5.14314317	      0.64442314	      9.76756934	     21.31404344	     -4.87357130	     68.19084625	     36.66319055	     70.91433757	      6.90050382	     -4.22021930
